# Blender v2.77 (sub 0) OBJ File: ''
# www.blender.org
mtllib LampPost.mtl
o Body.003_Body_Mesh.003
v 0.108608 3.546366 -0.235936
v 0.080216 2.175557 -0.235936
v 0.108608 3.546367 -1.712508
v 0.080216 2.175557 -1.712508
vt 0.000000 1.000000
vt 0.000000 0.000000
vt 1.000000 1.000000
vt 1.000000 0.000000
vn 0.999800 -0.020700 0.000000
usemtl Material
s off
f 1/1/1 2/2/1 3/3/1
f 4/4/1 3/3/1 2/2/1
o Body.002_Body_Mesh.002
v 0.160101 3.060954 -0.972886
v 0.160101 3.581583 -0.968342
v 0.009924 3.581583 -0.968342
v 0.009924 3.060954 -0.972886
v 0.082734 3.582235 -1.043070
v 0.082734 3.061780 -1.047612
v 0.082734 3.060470 -0.897441
v 0.082734 3.580924 -0.892899
vt 0.172668 0.048772
vt 0.984567 0.824097
vt 0.877624 0.995371
vt 0.059054 0.220046
vt 0.758717 0.888703
vt -0.062990 0.089007
vt 0.062200 -0.081151
vt 0.883906 0.718546
vn 0.000000 -0.008700 1.000000
vn -1.000000 0.000000 -0.000000
usemtl None
s off
f 5/5/2 6/6/2 7/7/2
f 7/7/2 8/8/2 5/5/2
f 9/9/3 10/10/3 11/11/3
f 11/11/3 12/12/3 9/9/3
o Body.001_Body_Mesh.001
v -0.052644 2.558259 -1.108745
v 0.234134 2.558259 -1.108745
v 0.234134 2.555756 -0.821978
v -0.110249 3.121394 -0.759434
v 0.291740 3.121394 -0.759434
v 0.291740 3.124902 -1.161408
v -0.110249 3.124902 -1.161408
v 0.234134 2.558259 -1.108745
v -0.052644 2.558259 -1.108745
v -0.052644 2.555756 -0.821978
v -0.110249 3.121394 -0.759434
v 0.234134 2.558259 -1.108745
v 0.291740 3.124902 -1.161408
v 0.291740 3.121394 -0.759434
v -0.052644 2.555756 -0.821978
v -0.110249 3.121394 -0.759434
vt 0.967742 0.555556
vt 0.032258 0.555556
vt 0.032258 0.015873
vt 0.967742 0.444444
vt 0.032258 0.444444
vt 0.032258 0.984127
vt 0.967742 0.984127
vt 0.032258 0.015873
vt 0.967742 0.015873
vt 0.032258 0.015873
vt 0.032258 0.984127
vt 0.967742 0.015873
vt 0.967742 0.984127
vt 0.032258 0.984127
vt 0.967742 0.015873
vt 0.967742 0.984127
vn 0.000000 -1.000000 -0.008700
vn 0.000000 1.000000 0.008700
vn 0.000000 -0.092500 -0.995700
vn -0.994900 -0.101200 -0.000900
vn 0.994900 -0.101200 -0.000900
vn 0.000000 -0.109900 0.993900
usemtl None_STORMWINDLAMPGLASS.png
s off
f 13/13/4 14/14/4 15/15/4
f 16/16/5 17/17/5 18/18/5
f 18/18/5 19/19/5 16/16/5
f 19/19/6 18/18/6 20/20/6
f 20/20/6 21/21/6 19/19/6
f 21/21/7 22/22/7 19/19/7
f 22/22/7 23/23/7 19/19/7
f 15/15/8 24/24/8 25/25/8
f 25/25/8 26/26/8 15/15/8
f 15/15/4 27/27/4 13/13/4
f 15/15/9 28/28/9 27/27/9
f 15/15/9 26/26/9 28/28/9
o Body_Body_Mesh
v -0.049488 4.088675 -0.127116
v -0.049488 4.088675 0.158998
v 0.236625 4.088675 0.158998
v -0.056943 3.730602 0.568738
v -0.056942 3.429581 0.568738
v 0.244079 3.730602 0.568738
v 0.244079 3.429581 0.568738
v -0.011009 3.475514 -1.166165
v -0.011009 3.684669 -1.166165
v 0.198146 3.684669 -1.166165
v 0.198146 3.475515 -1.166165
v 0.018327 3.492261 -0.610233
v 0.018327 3.492260 -0.790962
v -0.026640 2.709413 -0.128081
v -0.026640 3.035382 -0.126380
v 0.176106 3.492261 -0.610233
v 0.221073 3.035382 -0.126380
v 0.176106 3.492260 -0.790962
v 0.176106 3.492261 -0.610233
v 0.221073 3.035382 -0.126380
v 0.221073 2.709413 -0.128081
v 0.018327 3.492260 -0.790962
v -0.026640 2.709413 -0.128081
v -0.011009 3.684669 -1.166165
v -0.011009 3.475514 -1.166165
v -0.056942 3.429581 0.568738
v -0.056943 3.730602 0.568738
v 0.198146 3.684669 -1.166165
v 0.244079 3.730602 0.568738
v 0.244079 3.429581 0.568738
v -0.056942 3.429581 0.568738
v -0.011009 3.475514 -1.166165
v 0.198146 3.475515 -1.166165
v 0.244079 3.730602 0.568738
v 0.198146 3.684669 -1.166165
v -0.049488 4.088675 0.158998
v -0.049488 4.088675 -0.127116
v -0.098128 -0.008150 -0.175755
v -0.098128 -0.008150 0.207637
v 0.236625 4.088675 0.158998
v 0.285264 -0.008150 0.207637
v 0.236625 4.088675 -0.127116
v 0.236625 4.088675 0.158998
v 0.285264 -0.008150 0.207637
v 0.285264 -0.008150 -0.175755
v -0.049488 4.088675 -0.127116
v -0.098128 -0.008150 -0.175755
v 0.236625 4.088675 -0.127116
vt 0.000000 1.000000
vt 0.484375 0.871094
vt 0.968750 1.000000
vt 0.500000 0.878906
vt 0.968750 1.000000
vt 0.000000 1.000000
vt 0.500000 0.882812
vt 0.984375 1.000000
vt 0.531250 0.871094
vt 0.000000 1.000000
vt 0.531250 0.871094
vt 1.000000 0.000000
vt 0.000000 0.000000
vt 0.000000 0.914062
vt 1.000000 0.914062
vt 0.000000 0.000000
vt 0.000000 0.914062
vt 0.000000 0.000000
vt 1.000000 0.000000
vt 1.000000 0.914062
vt 0.000000 0.914062
vt 1.000000 0.000000
vt 1.000000 0.914062
vt 1.000000 0.000000
vt -0.000000 0.000000
vt -0.000000 0.914062
vt 1.000000 0.914062
vt -0.000000 0.000000
vt -0.000000 0.914062
vt -0.000000 0.914062
vt 1.000000 0.914062
vt 1.000000 0.000000
vt -0.000000 0.000000
vt 1.000000 0.914062
vt 1.000000 0.000000
vt 0.000000 0.914062
vt 0.984375 0.914062
vt 0.984375 0.000000
vt 0.000000 0.000000
vt 0.984375 0.914062
vt 0.984375 0.000000
vt 0.984375 0.914062
vt 0.000000 0.914062
vt 0.000000 0.000000
vt 0.984375 0.000000
vt 0.000000 0.914062
vt 0.000000 0.000000
vt 0.484375 0.871094
vn 0.000000 1.000000 0.000000
vn 0.000000 -0.000000 1.000000
vn -0.000000 0.000000 -1.000000
vn -0.998400 0.057300 0.000000
vn -0.995800 0.000500 -0.092100
vn 0.000000 0.727100 0.686500
vn 0.995200 0.097900 0.000000
vn 0.997700 0.000400 -0.067300
vn 0.000000 -0.646200 -0.763200
vn -0.999600 0.000000 -0.026500
vn -0.000000 0.999600 -0.026500
vn -0.000000 -0.999600 -0.026500
vn 0.999600 0.000000 -0.026500
vn -0.999900 0.011900 0.000000
vn 0.000000 0.011900 0.999900
vn 0.999900 0.011900 0.000000
vn 0.000000 0.011900 -0.999900
usemtl None_DEADMINESTABLE01.png
s off
f 29/29/10 30/30/10 31/31/10
f 32/32/11 33/33/11 34/34/11
f 35/35/11 34/34/11 33/33/11
f 36/36/12 37/37/12 38/38/12
f 38/38/12 39/39/12 36/36/12
f 40/40/13 41/41/13 42/42/13
f 42/42/14 43/43/14 40/40/14
f 44/44/15 40/40/15 43/43/15
f 43/43/15 45/45/15 44/44/15
f 46/46/16 47/47/16 48/48/16
f 48/48/17 49/49/17 46/46/17
f 50/50/18 46/46/18 49/49/18
f 49/49/18 51/51/18 50/50/18
f 52/52/19 53/53/19 54/54/19
f 54/54/19 55/55/19 52/52/19
f 56/56/20 52/52/20 55/55/20
f 55/55/20 57/57/20 56/56/20
f 58/58/21 59/59/21 60/60/21
f 60/60/21 61/61/21 58/58/21
f 62/62/22 58/58/22 61/61/22
f 61/61/22 63/63/22 62/62/22
f 64/64/23 65/65/23 66/66/23
f 66/66/23 67/67/23 64/64/23
f 68/68/24 64/64/24 67/67/24
f 67/67/24 69/69/24 68/68/24
f 70/70/25 71/71/25 72/72/25
f 72/72/25 73/73/25 70/70/25
f 74/74/26 70/70/26 73/73/26
f 73/73/26 75/75/26 74/74/26
f 31/31/10 76/76/10 29/29/10
