# Blender v2.77 (sub 0) OBJ File: ''
# www.blender.org
mtllib pine.mtl
o Body_Body_Mesh
v -0.013020 5.421890 0.016948
v 1.490460 4.504580 0.016839
v 0.532292 4.380170 0.016906
v -0.417433 4.380170 0.016906
v -1.375630 4.479190 0.016839
v -0.984447 3.280750 0.017303
v -1.852090 3.523060 0.021938
v -0.946239 1.562850 0.018934
v -1.807980 1.619570 0.060697
v -0.492406 0.637289 0.016453
v -1.412880 0.589614 0.029026
v 0.057212 1.619570 2.035810
v 0.057071 1.562850 1.022090
v -0.089251 3.209080 1.908120
v -0.851361 -0.269573 0.016956
v -0.558139 0.218084 0.016634
v -0.013101 -0.269573 -0.763811
v -0.013101 -0.269573 0.797722
v -0.013022 0.637289 0.508794
v 0.811139 -0.269573 0.016956
v 0.558339 0.296767 0.016924
v 0.000000 0.637289 -0.462808
v -0.492406 0.637289 0.016453
v 0.000000 0.589614 1.516540
v 0.478997 0.637289 0.016902
v 0.057071 1.562850 -0.984089
v -0.946239 1.562850 0.018934
v -0.085361 3.079780 0.916256
v 0.057546 4.570190 1.450020
v 0.057212 1.543100 -2.188220
v 0.000000 0.589614 -1.422250
v -0.089251 3.297220 -2.034590
v -0.085361 3.079780 -0.881536
v 0.057546 4.389670 -1.416080
v 0.057431 4.380170 -0.457747
v 0.813722 3.280750 0.017303
v 0.532292 4.380170 0.016906
v 1.060380 1.562850 0.018934
v -0.984447 3.280750 0.017303
v -0.417433 4.380170 0.016906
v 0.057431 4.380170 0.491656
v 1.928230 1.619570 0.018859
v 1.402230 0.589614 0.029026
v 0.478997 0.637289 0.016902
v 1.060380 1.562850 0.018934
v 1.958540 3.548780 0.021938
v 0.813722 3.280750 0.017303
vt 0.759226 0.997085
vt 0.157660 0.780424
vt 0.438163 0.790086
vt 0.438163 0.790086
vt 0.157660 0.780424
vt 0.399416 0.571109
vt 0.000499 0.559031
vt 0.445252 0.328447
vt 0.030547 0.311539
vt 0.592541 0.102335
vt 0.174131 0.094702
vt 0.030547 0.311539
vt 0.445252 0.328447
vt 0.000499 0.559031
vt 0.989763 0.000499
vt 0.975933 0.063320
vt 0.550145 0.000499
vt 0.550145 0.000499
vt 0.592541 0.102335
vt 0.989763 0.000499
vt 0.976503 0.060735
vt 0.592541 0.102335
vt 0.967344 0.102335
vt 0.174131 0.094702
vt 0.967344 0.102335
vt 0.445252 0.328447
vt 0.956581 0.352602
vt 0.399416 0.571109
vt 0.157660 0.780424
vt 0.030547 0.311539
vt 0.174131 0.094702
vt 0.000499 0.559031
vt 0.399416 0.571109
vt 0.157660 0.780424
vt 0.438163 0.790086
vt 0.967924 0.588017
vt 0.880770 0.792502
vt 0.956581 0.352602
vt 0.967924 0.588017
vt 0.880770 0.792502
vt 0.438163 0.790086
vt 0.030547 0.311539
vt 0.174131 0.094702
vt 0.592541 0.102335
vt 0.445252 0.328447
vt 0.000499 0.559031
vt 0.399416 0.571109
vn -0.000100 0.000000 -1.000000
vn 0.000100 0.000000 -1.000000
vn 0.000000 -0.000400 -1.000000
vn -0.006000 -0.002300 -1.000000
vn -0.005600 -0.001100 -1.000000
vn -0.049800 -0.021500 -0.998500
vn -0.049800 -0.021800 -0.998500
vn 0.014900 -0.025000 0.999600
vn 0.995800 0.091300 -0.005200
vn -0.630800 0.378800 -0.677200
vn -0.630600 0.379600 0.677000
vn -0.738000 0.204900 0.642900
vn 0.657400 0.293500 0.694000
vn 0.657400 0.293400 -0.694000
vn 0.708300 0.213200 -0.673000
vn -0.726800 0.225800 -0.648700
vn -0.693400 0.108400 -0.712400
vn -0.712000 0.111900 0.693200
vn 0.998700 -0.047800 -0.015200
vn 0.997000 -0.077800 0.004200
vn -0.679800 -0.315600 0.662000
vn 0.707500 0.214500 0.673400
vn 0.697600 0.162600 0.697800
vn 0.698200 0.162600 -0.697200
vn 0.647300 -0.404000 -0.646400
vn -0.656100 -0.339200 -0.674100
vn -0.668400 -0.325900 -0.668600
vn -0.667700 -0.329200 0.667800
vn -0.706900 -0.017000 0.707100
vn 0.995600 0.092900 -0.008200
vn 0.994700 -0.101500 0.017100
vn -0.998300 0.057600 -0.002900
vn 0.998100 -0.060900 0.001100
vn 0.996500 0.083300 -0.001200
vn 0.995600 0.092500 0.014100
vn 0.992600 -0.118800 -0.025800
vn 0.994100 -0.108800 -0.001000
vn 0.997700 0.067100 0.000800
vn 0.695700 0.177800 -0.696000
vn 0.680100 0.158600 -0.715800
vn 0.692400 0.098700 -0.714700
vn 0.702400 0.113500 -0.702600
vn 0.646500 -0.404700 -0.646700
vn -0.664200 0.342300 -0.664500
vn -0.681700 0.264700 -0.682000
vn 0.663000 0.347100 -0.663300
vn 0.663100 0.347100 0.663200
vn 0.695700 0.178300 0.695900
vn 0.680100 0.159000 0.715700
vn 0.692200 0.100100 0.714700
vn 0.702400 0.115000 0.702500
vn 0.645800 -0.407100 0.645900
vn -0.639800 0.300700 -0.707200
vn -0.708700 -0.016400 -0.705300
vn -0.706900 -0.018600 -0.707100
vn -0.681800 0.264700 0.682000
vn -0.664200 0.342800 0.664300
vn -0.639700 0.301100 0.707100
vn -0.708700 -0.015100 0.705400
vn 0.998000 0.061900 -0.012400
vn 0.994500 -0.102600 0.020200
vn 0.012300 -0.016100 -0.999800
vn -0.000200 0.002300 -1.000000
vn -0.000200 0.001600 -1.000000
vn 0.004100 -0.000400 -1.000000
vn 0.004800 -0.003000 -1.000000
usemtl Material.001
s off
f 1/1/1 2/2/1 3/3/1
f 1/1/2 4/4/2 5/5/2
f 4/4/3 6/6/3 5/5/3
f 7/7/4 5/5/4 6/6/4
f 6/6/5 8/8/5 7/7/5
f 9/9/6 7/7/6 8/8/6
f 8/8/7 10/10/7 9/9/7
f 9/9/8 11/11/8 10/10/8
f 12/12/9 13/13/9 14/14/9
f 15/15/10 16/16/10 17/17/10
f 15/15/11 18/18/11 16/16/11
f 16/16/12 18/18/12 19/19/12
f 20/20/13 21/21/13 18/18/13
f 20/20/14 17/17/14 21/21/14
f 21/21/15 17/17/15 22/22/15
f 17/17/16 16/16/16 22/22/16
f 16/16/17 23/23/17 22/22/17
f 16/16/18 19/19/18 23/23/18
f 12/12/19 24/24/19 19/19/19
f 13/13/20 12/12/20 19/19/20
f 23/23/21 19/19/21 13/13/21
f 18/18/22 21/21/22 19/19/22
f 21/21/23 25/25/23 19/19/23
f 21/21/24 22/22/24 25/25/24
f 25/25/25 22/22/25 26/26/25
f 23/23/26 26/26/26 22/22/26
f 23/23/27 27/27/27 26/26/27
f 23/23/28 13/13/28 27/27/28
f 27/27/29 13/13/29 28/28/29
f 28/28/30 14/14/30 13/13/30
f 14/14/31 28/28/31 29/29/31
f 30/30/32 31/31/32 22/22/32
f 26/26/33 22/22/33 30/30/33
f 30/30/34 32/32/34 26/26/34
f 33/33/35 26/26/35 32/32/35
f 32/32/36 34/34/36 33/33/36
f 35/35/37 33/33/37 34/34/37
f 1/1/38 35/35/38 34/34/38
f 36/36/39 35/35/39 37/37/39
f 36/36/40 33/33/40 35/35/40
f 38/38/41 33/33/41 36/36/41
f 38/38/42 26/26/42 33/33/42
f 25/25/43 26/26/43 38/38/43
f 39/39/44 40/40/44 35/35/44
f 40/40/45 1/1/45 35/35/45
f 37/37/46 35/35/46 1/1/46
f 37/37/47 1/1/47 41/41/47
f 36/36/48 37/37/48 41/41/48
f 36/36/49 41/41/49 28/28/49
f 38/38/50 36/36/50 28/28/50
f 38/38/51 28/28/51 13/13/51
f 25/25/52 38/38/52 13/13/52
f 25/25/52 13/13/52 19/19/52
f 39/39/53 35/35/53 33/33/53
f 27/27/54 39/39/54 33/33/54
f 27/27/55 33/33/55 26/26/55
f 40/40/56 41/41/56 1/1/56
f 39/39/57 41/41/57 40/40/57
f 39/39/58 28/28/58 41/41/58
f 27/27/59 28/28/59 39/39/59
f 1/1/60 29/29/60 41/41/60
f 41/41/61 29/29/61 28/28/61
f 42/42/62 43/43/62 44/44/62
f 45/45/63 42/42/63 44/44/63
f 42/42/64 45/45/64 46/46/64
f 47/47/65 46/46/65 45/45/65
f 46/46/66 47/47/66 2/2/66
f 3/3/3 2/2/3 47/47/3
